<svg width="40" height="41" viewBox="0 0 40 41" fill="none" xmlns="http://www.w3.org/2000/svg">
<g clip-path="url(#clip0_46_138)">
<path d="M28.125 0.640381L11.875 0.640381C11.2122 0.641249 10.5768 0.904988 10.1082 1.37376C9.63954 1.84254 9.37587 2.47808 9.375 3.14102L9.375 36.8997C9.37587 37.5627 9.63954 38.1982 10.1082 38.667C10.5768 39.1357 11.2122 39.3995 11.875 39.4004H28.125C28.7878 39.3995 29.4232 39.1357 29.8918 38.667C30.3605 38.1982 30.6241 37.5627 30.625 36.8997L30.625 3.14102C30.6241 2.47808 30.3605 1.84254 29.8918 1.37376C29.4232 0.904988 28.7878 0.641249 28.125 0.640381ZM22.925 1.8907L22.5734 3.14102L17.3633 3.14102L17.0508 1.8907L22.925 1.8907ZM29.375 36.8997C29.3746 37.2312 29.2427 37.549 29.0084 37.7833C28.7741 38.0177 28.4564 38.1496 28.125 38.15H11.875C11.5436 38.1496 11.2259 38.0177 10.9916 37.7833C10.7573 37.549 10.6254 37.2312 10.625 36.8997L10.625 3.14102C10.6254 2.80955 10.7573 2.49178 10.9916 2.25739C11.2259 2.02301 11.5436 1.89114 11.875 1.8907L15.7617 1.8907L16.2687 3.91779C16.3025 4.05303 16.3806 4.1731 16.4904 4.2589C16.6003 4.34471 16.7356 4.39133 16.875 4.39135L23.0469 4.39135C23.1831 4.39135 23.3156 4.34684 23.4241 4.2646C23.5327 4.18236 23.6115 4.06689 23.6484 3.93576L24.2234 1.8907L28.125 1.8907C28.4564 1.89114 28.7741 2.02301 29.0084 2.25739C29.2427 2.49178 29.3746 2.80955 29.375 3.14102L29.375 36.8997Z" fill="white"/>
<path d="M16.875 35.6494H12.5C12.3342 35.6494 12.1753 35.7153 12.0581 35.8325C11.9408 35.9498 11.875 36.1088 11.875 36.2746C11.875 36.4404 11.9408 36.5994 12.0581 36.7166C12.1753 36.8339 12.3342 36.8997 12.5 36.8997H16.875C17.0408 36.8997 17.1997 36.8339 17.3169 36.7166C17.4342 36.5994 17.5 36.4404 17.5 36.2746C17.5 36.1088 17.4342 35.9498 17.3169 35.8325C17.1997 35.7153 17.0408 35.6494 16.875 35.6494Z" fill="white"/>
<path d="M19.375 35.6494H18.75C18.5842 35.6494 18.4253 35.7153 18.3081 35.8325C18.1908 35.9498 18.125 36.1088 18.125 36.2746C18.125 36.4404 18.1908 36.5994 18.3081 36.7166C18.4253 36.8339 18.5842 36.8997 18.75 36.8997H19.375C19.5408 36.8997 19.6997 36.8339 19.8169 36.7166C19.9342 36.5994 20 36.4404 20 36.2746C20 36.1088 19.9342 35.9498 19.8169 35.8325C19.6997 35.7153 19.5408 35.6494 19.375 35.6494Z" fill="white"/>
<path d="M22.1966 16.3585C22.1262 16.3163 22.0482 16.2883 21.967 16.2762C21.8858 16.2641 21.803 16.2682 21.7234 16.2881C21.6438 16.308 21.5689 16.3434 21.5029 16.3923C21.437 16.4411 21.3813 16.5025 21.3391 16.5729L17.5891 22.8245C17.5038 22.9667 17.4784 23.137 17.5186 23.2978C17.5589 23.4587 17.6613 23.597 17.8034 23.6823C17.9456 23.7676 18.1158 23.7929 18.2766 23.7527C18.4374 23.7125 18.5756 23.61 18.6609 23.4678L22.4109 17.2162C22.4532 17.1458 22.4811 17.0678 22.4932 16.9866C22.5053 16.9054 22.5012 16.8226 22.4813 16.743C22.4614 16.6633 22.426 16.5884 22.3772 16.5224C22.3283 16.4564 22.2669 16.4007 22.1966 16.3585Z" fill="white"/>
<path d="M24.238 16.5038C24.1868 16.4397 24.1233 16.3864 24.0514 16.3468C23.9795 16.3072 23.9005 16.2821 23.8189 16.2731C23.6541 16.2548 23.4888 16.3028 23.3594 16.4064C23.2299 16.51 23.147 16.6608 23.1287 16.8257C23.1104 16.9905 23.1584 17.1558 23.262 17.2853L25.4495 20.0204L23.262 22.7554C23.1584 22.8849 23.1104 23.0503 23.1287 23.2151C23.147 23.3799 23.2299 23.5307 23.3594 23.6343C23.4888 23.738 23.6541 23.7859 23.8189 23.7676C23.9837 23.7494 24.1344 23.6664 24.238 23.5369L26.738 20.4111C26.8268 20.3002 26.8752 20.1624 26.8752 20.0204C26.8752 19.8783 26.8268 19.7405 26.738 19.6296L24.238 16.5038Z" fill="white"/>
<path d="M15.762 23.5369C15.8656 23.6664 16.0163 23.7494 16.1811 23.7676C16.3459 23.7859 16.5112 23.738 16.6406 23.6343C16.7701 23.5307 16.8531 23.3799 16.8713 23.2151C16.8896 23.0503 16.8417 22.8849 16.7381 22.7554L14.5506 20.0204L16.7381 17.2853C16.7894 17.2212 16.8275 17.1476 16.8504 17.0687C16.8733 16.9899 16.8804 16.9073 16.8713 16.8257C16.8623 16.7441 16.8372 16.665 16.7977 16.5931C16.7581 16.5211 16.7047 16.4577 16.6406 16.4064C16.5765 16.3551 16.503 16.3169 16.4241 16.294C16.3453 16.2712 16.2627 16.264 16.1811 16.2731C16.0995 16.2821 16.0205 16.3072 15.9486 16.3468C15.8767 16.3864 15.8133 16.4397 15.762 16.5038L13.262 19.6296C13.1732 19.7405 13.1248 19.8783 13.1248 20.0204C13.1248 20.1624 13.1732 20.3002 13.262 20.4111L15.762 23.5369Z" fill="white"/>
</g>
<defs>
<clipPath id="clip0_46_138">
<rect width="40" height="40.0103" fill="white" transform="translate(0 0.0151978)"/>
</clipPath>
</defs>
</svg>
