<svg width="40" height="41" viewBox="0 0 40 41" fill="none" xmlns="http://www.w3.org/2000/svg">
<g clip-path="url(#clip0_46_126)">
<path d="M25.789 12.7393C21.8989 7.0148 16.7033 3.97226 13.9824 5.83647C13.6828 6.04752 13.4225 6.30942 13.2132 6.6103C13.2132 6.63228 6.91431 19.3828 6.91431 19.3828L3.39783 21.7658C2.858 22.1324 2.39566 22.6017 2.03721 23.1471C1.67877 23.6924 1.43125 24.303 1.30879 24.944C1.18633 25.5851 1.19134 26.2439 1.32352 26.883C1.4557 27.5221 1.71246 28.1289 2.07915 28.6687L2.23739 28.9017C2.97858 29.9817 4.11555 30.7259 5.4017 30.9728C6.68784 31.2197 8.01946 30.9495 9.10772 30.2208L14.7561 38.5438C15.5868 39.5682 17.1824 40.5883 19.1517 39.388C19.5005 39.1617 19.7981 38.8648 20.0253 38.5165C20.2524 38.1681 20.404 37.776 20.4704 37.3655C20.5499 36.9571 20.5478 36.537 20.464 36.1295C20.3803 35.722 20.2166 35.3351 19.9824 34.9912L15.0066 27.6487C15.0066 27.6487 26.7693 26.7122 26.8132 26.6946C27.1805 26.6177 27.5287 26.4682 27.8374 26.2549C29.2352 25.3052 29.7363 23.3135 29.2528 20.6447C28.8176 18.1869 27.5824 15.4038 25.789 12.7393ZM3.51651 28.0356L3.35827 27.8026C3.10528 27.43 2.92822 27.0112 2.83724 26.5701C2.74627 26.129 2.74315 25.6743 2.82807 25.2321C2.913 24.7898 3.08429 24.3686 3.33216 23.9926C3.58002 23.6166 3.89958 23.2932 4.27256 23.0409L7.30992 20.9744L11.3187 26.8792L8.28135 28.9457C7.90881 29.1991 7.48999 29.3766 7.04885 29.468C6.6077 29.5594 6.15288 29.5629 5.71036 29.4784C5.26785 29.3938 4.84633 29.2229 4.4699 28.9754C4.09346 28.7278 3.76949 28.4085 3.51651 28.0356ZM18.7165 35.8574C18.9568 36.2149 19.0454 36.6532 18.963 37.0761C18.8806 37.4989 18.6339 37.8718 18.277 38.1129C17.9188 38.3534 17.48 38.4422 17.0565 38.3598C16.633 38.2774 16.2595 38.0305 16.0176 37.6732L10.3868 29.3766L12.6506 27.8377L13.2484 27.7894L18.7165 35.8574ZM12.7737 26.2813L8.40442 19.8445L12.5715 11.3456C12.9759 13.733 14.1583 16.5689 16.0484 19.352C17.9385 22.1352 20.1363 24.2808 22.2022 25.5382L12.7737 26.2813ZM25.7407 25.2569C23.6396 25.1206 20.2198 22.7507 17.3231 18.4815C14.4264 14.2123 13.4857 10.1717 14.1319 8.16235C14.2486 7.78519 14.4814 7.45456 14.7972 7.21768C15.113 6.98079 15.4955 6.84977 15.8901 6.84332C17.9737 6.84332 21.5209 9.22636 24.5011 13.6187C26.1802 16.0897 27.4022 18.6749 27.7363 20.9349C28.3912 25.2569 25.7407 25.2569 25.7407 25.2569Z" fill="white"/>
<path d="M20.2945 12.902C19.7561 12.7963 19.202 12.7989 18.6646 12.9099C18.1272 13.0209 17.6174 13.2379 17.1648 13.5483C17.0814 13.6061 17.0102 13.6797 16.9552 13.765C16.9003 13.8502 16.8626 13.9455 16.8445 14.0453C16.8263 14.1451 16.828 14.2476 16.8494 14.3467C16.8708 14.4459 16.9115 14.5399 16.9692 14.6233C17.027 14.7068 17.1005 14.778 17.1858 14.833C17.271 14.888 17.3663 14.9256 17.4661 14.9438C17.5659 14.962 17.6683 14.9603 17.7674 14.9389C17.8666 14.9175 17.9605 14.8767 18.044 14.819C18.3306 14.6244 18.6527 14.4882 18.9919 14.4181C19.3311 14.3481 19.6808 14.3455 20.021 14.4107C20.3612 14.4758 20.6853 14.6073 20.9747 14.7977C21.2641 14.9881 21.5132 15.2336 21.7077 15.5203C21.9022 15.8069 22.0384 16.1291 22.1084 16.4685C22.1785 16.8078 22.181 17.1576 22.1159 17.4979C22.0508 17.8381 21.9193 18.1623 21.729 18.4518C21.5387 18.7412 21.2932 18.9904 21.0066 19.1849C20.8715 19.2783 20.7697 19.4124 20.7163 19.5678C20.6629 19.7231 20.6606 19.8915 20.7097 20.0482C20.7588 20.205 20.8568 20.3419 20.9893 20.4389C21.1218 20.536 21.2819 20.588 21.4462 20.5875C21.6028 20.5904 21.7565 20.5443 21.8857 20.4556C22.5694 19.9923 23.1002 19.3365 23.411 18.5713C23.7217 17.806 23.7984 16.9657 23.6313 16.1568C23.4642 15.3478 23.0608 14.6067 22.4723 14.0273C21.8838 13.4479 21.1365 13.0563 20.3253 12.902H20.2945Z" fill="white"/>
<path d="M26.7385 7.38851H26.8132C27.0035 7.38843 27.187 7.31783 27.3282 7.19034C27.4695 7.06285 27.5585 6.88752 27.5781 6.69822L28.1715 0.929702C28.185 0.827699 28.1779 0.724024 28.1506 0.624809C28.1234 0.525594 28.0765 0.432855 28.0128 0.352079C27.9491 0.271304 27.8698 0.204132 27.7797 0.154538C27.6895 0.104945 27.5904 0.0739371 27.4881 0.0633495C27.3857 0.0527619 27.2823 0.0628095 27.184 0.092898C27.0856 0.122987 26.9942 0.172505 26.9153 0.238523C26.8364 0.304541 26.7716 0.385717 26.7246 0.47725C26.6776 0.568783 26.6495 0.668812 26.6418 0.77142L26.0528 6.54433C26.0319 6.74722 26.0924 6.9501 26.221 7.10839C26.3495 7.26668 26.5357 7.36744 26.7385 7.38851Z" fill="white"/>
<path d="M36.6813 6.2014C36.5684 6.03111 36.3927 5.91241 36.1926 5.87123C35.9925 5.83004 35.7842 5.86971 35.6132 5.98157L30.255 9.49896C30.1158 9.59085 30.0103 9.72548 29.9543 9.88256C29.8983 10.0396 29.8948 10.2107 29.9444 10.3699C29.994 10.5291 30.094 10.6679 30.2293 10.7654C30.3646 10.8629 30.5278 10.9137 30.6945 10.9103C30.85 10.9139 31.0031 10.871 31.1341 10.7872L36.4923 7.26981C36.6586 7.15283 36.7717 6.97479 36.8072 6.7746C36.8426 6.57442 36.7973 6.36834 36.6813 6.2014Z" fill="white"/>
<path d="M38.3209 15.5928L32.0879 14.4716C31.8868 14.4355 31.6796 14.4807 31.5119 14.5974C31.3441 14.7141 31.2296 14.8926 31.1934 15.0938C31.1573 15.2949 31.2025 15.5022 31.3192 15.67C31.4358 15.8378 31.6143 15.9524 31.8154 15.9885L38.044 17.1097H38.1802C38.3762 17.1154 38.567 17.046 38.7136 16.9158C38.8602 16.7855 38.9515 16.6042 38.9689 16.4088C38.9863 16.2135 38.9285 16.0189 38.8072 15.8647C38.6859 15.7106 38.5104 15.6086 38.3165 15.5796L38.3209 15.5928Z" fill="white"/>
</g>
<defs>
<clipPath id="clip0_46_126">
<rect width="40" height="40.0103" fill="white" transform="translate(0 0.0151978)"/>
</clipPath>
</defs>
</svg>
