<svg width="25" height="25" viewBox="0 0 25 25" fill="none" xmlns="http://www.w3.org/2000/svg">
<g clip-path="url(#clip0_51_1960)">
<path d="M20.8219 12.0541C20.7365 10.4144 20.1662 8.83701 19.1834 7.52179C18.8839 7.84433 18.5638 8.14705 18.225 8.42804C17.1843 9.29247 16.0214 9.99803 14.774 10.5218C14.948 10.8864 15.1073 11.2395 15.248 11.5728V11.576C15.2876 11.6691 15.3258 11.7629 15.3625 11.8572C16.9396 11.6801 18.6021 11.7447 20.2136 11.9624C20.4282 11.9916 20.6303 12.0228 20.8219 12.0541ZM11.0459 4.29367C12.061 5.72406 12.9971 7.20892 13.85 8.74159C15.124 8.2395 16.1771 7.60617 17.025 6.90096C17.3194 6.65839 17.5964 6.3956 17.8542 6.1145C16.3552 4.85379 14.4587 4.16381 12.5 4.16659C12.0126 4.16625 11.526 4.20843 11.0459 4.29263V4.29367ZM4.43025 10.4135C5.13986 10.3956 5.84863 10.3528 6.55525 10.2853C8.26321 10.1326 9.95658 9.84628 11.6198 9.42909C10.7506 7.91889 9.81208 6.44962 8.80733 5.02596C7.73412 5.55762 6.78781 6.31389 6.03259 7.24345C5.27736 8.17301 4.73089 9.25413 4.43025 10.4135ZM6.024 17.7447C6.42817 17.1541 6.95942 16.4895 7.66462 15.7666C9.17921 14.2145 10.9667 13.0062 13.0355 12.3395L13.1 12.3208C12.9282 11.9416 12.7667 11.603 12.6042 11.2843C10.6917 11.8416 8.67712 12.1895 6.66983 12.3697C5.69067 12.4583 4.81254 12.4968 4.16671 12.503C4.16486 14.412 4.82118 16.2632 6.02504 17.7447H6.024ZM15.6302 20.2239C15.2285 18.1981 14.6599 16.209 13.9303 14.277C11.8448 15.0343 10.1834 16.1416 8.899 17.4624C8.38067 17.9857 7.92068 18.5638 7.52712 19.1864C8.96338 20.258 10.708 20.8358 12.5 20.8333C13.5729 20.8348 14.6358 20.6286 15.6302 20.226V20.2239ZM17.5813 19.1041C19.2076 17.8538 20.3155 16.0475 20.6928 14.0312C20.3386 13.9426 19.8896 13.8541 19.3959 13.7853C18.2981 13.6273 17.1842 13.6157 16.0834 13.751C16.7032 15.4997 17.2037 17.2886 17.5813 19.1051V19.1041ZM12.5 22.9166C6.74692 22.9166 2.08337 18.253 2.08337 12.4999C2.08337 6.74679 6.74692 2.08325 12.5 2.08325C18.2532 2.08325 22.9167 6.74679 22.9167 12.4999C22.9167 18.253 18.2532 22.9166 12.5 22.9166Z" fill="black"/>
</g>
<defs>
<clipPath id="clip0_51_1960">
<rect width="25" height="25" fill="white"/>
</clipPath>
</defs>
</svg>
