<svg width="18" height="18" viewBox="0 0 18 18" fill="none" xmlns="http://www.w3.org/2000/svg">
<path d="M15.6575 8.53153C15.5891 7.22043 15.1329 5.95911 14.3466 4.90745C14.1071 5.16535 13.851 5.40741 13.58 5.6321C12.7474 6.3233 11.817 6.88749 10.8191 7.30629C10.9583 7.59782 11.0858 7.88018 11.1983 8.14672V8.14922C11.23 8.22369 11.2606 8.29867 11.29 8.37411C12.5516 8.23251 13.8816 8.28415 15.1708 8.45824C15.3425 8.48156 15.5041 8.50654 15.6575 8.53153ZM7.83663 2.3262C8.64874 3.46995 9.39764 4.65727 10.08 5.88281C11.0991 5.48134 11.9416 4.97492 12.62 4.41102C12.8554 4.21706 13.0771 4.00693 13.2833 3.78216C12.0841 2.77408 10.5669 2.22236 8.99996 2.22458C8.60999 2.22431 8.22074 2.25803 7.83663 2.32536V2.3262ZM2.54413 7.21967C3.11181 7.20535 3.67883 7.17118 4.24413 7.11722C5.61049 6.99506 6.96519 6.76614 8.29579 6.43255C7.60039 5.22497 6.84959 4.05012 6.04579 2.91175C5.18722 3.33687 4.43018 3.94159 3.826 4.68488C3.22182 5.42817 2.78464 6.29265 2.54413 7.21967ZM3.81913 13.0818C4.14246 12.6096 4.56746 12.0782 5.13163 11.5001C6.34329 10.259 7.77329 9.29283 9.42829 8.75976L9.47996 8.74476C9.34246 8.44158 9.21329 8.17087 9.08329 7.916C7.55329 8.36162 5.94163 8.63981 4.33579 8.78391C3.55246 8.85471 2.84996 8.88553 2.33329 8.89053C2.33182 10.417 2.85687 11.8972 3.81996 13.0818H3.81913ZM11.5041 15.0642C11.1828 13.4444 10.7279 11.8539 10.1441 10.309C8.47579 10.9145 7.14663 11.8 6.11913 12.8561C5.70446 13.2746 5.33647 13.7368 5.02163 14.2346C6.17063 15.0915 7.56636 15.5535 8.99996 15.5515C9.85822 15.5527 10.7086 15.3878 11.5041 15.0659V15.0642ZM13.065 14.1688C14.366 13.1691 15.2523 11.7247 15.5541 10.1124C15.2708 10.0416 14.9116 9.97084 14.5166 9.91586C13.6384 9.78946 12.7473 9.78022 11.8666 9.88838C12.3625 11.2867 12.7629 12.7171 13.065 14.1696V14.1688ZM8.99996 17.2173C4.39746 17.2173 0.666626 13.4883 0.666626 8.88803C0.666626 4.28775 4.39746 0.558716 8.99996 0.558716C13.6025 0.558716 17.3333 4.28775 17.3333 8.88803C17.3333 13.4883 13.6025 17.2173 8.99996 17.2173Z" fill="#15295F"/>
</svg>
