<svg width="18" height="18" viewBox="0 0 18 18" fill="none" xmlns="http://www.w3.org/2000/svg">
<path d="M8.99996 6.35066C8.33692 6.35066 7.70103 6.61392 7.23219 7.08254C6.76335 7.55115 6.49996 8.18673 6.49996 8.84945C6.49996 9.51217 6.76335 10.1478 7.23219 10.6164C7.70103 11.085 8.33692 11.3482 8.99996 11.3482C9.663 11.3482 10.2989 11.085 10.7677 10.6164C11.2366 10.1478 11.5 9.51217 11.5 8.84945C11.5 8.18673 11.2366 7.55115 10.7677 7.08254C10.2989 6.61392 9.663 6.35066 8.99996 6.35066ZM8.99996 4.6848C10.105 4.6848 11.1648 5.12357 11.9462 5.9046C12.7276 6.68562 13.1666 7.74492 13.1666 8.84945C13.1666 9.95399 12.7276 11.0133 11.9462 11.7943C11.1648 12.5753 10.105 13.0141 8.99996 13.0141C7.89489 13.0141 6.83508 12.5753 6.05368 11.7943C5.27228 11.0133 4.83329 9.95399 4.83329 8.84945C4.83329 7.74492 5.27228 6.68562 6.05368 5.9046C6.83508 5.12357 7.89489 4.6848 8.99996 4.6848ZM14.4166 4.47656C14.4166 4.7527 14.3069 5.01752 14.1115 5.21278C13.9162 5.40803 13.6512 5.51773 13.375 5.51773C13.0987 5.51773 12.8337 5.40803 12.6384 5.21278C12.443 5.01752 12.3333 4.7527 12.3333 4.47656C12.3333 4.20043 12.443 3.93561 12.6384 3.74035C12.8337 3.54509 13.0987 3.4354 13.375 3.4354C13.6512 3.4354 13.9162 3.54509 14.1115 3.74035C14.3069 3.93561 14.4166 4.20043 14.4166 4.47656ZM8.99996 2.186C6.93829 2.186 6.60163 2.19183 5.64246 2.23431C4.98913 2.26513 4.55079 2.35259 4.14413 2.51085C3.78246 2.65078 3.52163 2.8182 3.24413 3.0964C2.9833 3.34828 2.78275 3.65578 2.65746 3.99596C2.49913 4.4041 2.41163 4.84139 2.38163 5.49357C2.33829 6.41313 2.33329 6.73464 2.33329 8.84945C2.33329 10.9101 2.33913 11.2466 2.38163 12.2053C2.41246 12.8575 2.49996 13.2965 2.65746 13.7021C2.79913 14.0644 2.96579 14.3251 3.24246 14.6017C3.52329 14.8815 3.78413 15.049 4.14246 15.1872C4.55413 15.3463 4.99246 15.4346 5.64246 15.4646C6.56246 15.5079 6.88413 15.5129 8.99996 15.5129C11.0616 15.5129 11.3983 15.5071 12.3575 15.4646C13.0091 15.4338 13.4483 15.3463 13.855 15.1889C14.2158 15.0481 14.4783 14.8807 14.755 14.6042C15.0358 14.3235 15.2033 14.0628 15.3416 13.7046C15.5 13.294 15.5883 12.855 15.6183 12.2053C15.6616 11.2858 15.6666 10.9643 15.6666 8.84945C15.6666 6.78878 15.6608 6.45228 15.6183 5.49357C15.5875 4.84222 15.5 4.40243 15.3416 3.99596C15.216 3.65613 15.0159 3.34874 14.7558 3.0964C14.5039 2.83556 14.1962 2.63509 13.8558 2.51001C13.4475 2.35176 13.0091 2.2643 12.3575 2.23431C11.4375 2.191 11.1158 2.186 8.99996 2.186ZM8.99996 0.520142C11.2641 0.520142 11.5466 0.528471 12.435 0.570117C13.3225 0.611764 13.9266 0.750864 14.4583 0.957431C15.0083 1.169 15.4716 1.45552 15.935 1.9178C16.3587 2.33418 16.6866 2.83785 16.8958 3.39375C17.1016 3.92433 17.2416 4.52904 17.2833 5.41611C17.3225 6.30402 17.3333 6.58638 17.3333 8.84945C17.3333 11.1125 17.325 11.3949 17.2833 12.2828C17.2416 13.1699 17.1016 13.7737 16.8958 14.3052C16.6872 14.8614 16.3592 15.3652 15.935 15.7811C15.5183 16.2045 15.0144 16.5322 14.4583 16.7415C13.9275 16.9472 13.3225 17.0871 12.435 17.1288C11.5466 17.1679 11.2641 17.1788 8.99996 17.1788C6.73579 17.1788 6.45329 17.1704 5.56496 17.1288C4.67746 17.0871 4.07329 16.9472 3.54163 16.7415C2.98523 16.5328 2.48123 16.205 2.06496 15.7811C1.64113 15.3648 1.31324 14.8611 1.10413 14.3052C0.897459 13.7746 0.758293 13.1699 0.716626 12.2828C0.677459 11.3949 0.666626 11.1125 0.666626 8.84945C0.666626 6.58638 0.674959 6.30402 0.716626 5.41611C0.758293 4.52821 0.897459 3.92516 1.10413 3.39375C1.31266 2.83751 1.64063 2.3337 2.06496 1.9178C2.48135 1.49403 2.98532 1.16627 3.54163 0.957431C4.07329 0.750864 4.67663 0.611764 5.56496 0.570117C6.45329 0.53097 6.73579 0.520142 8.99996 0.520142Z" fill="#15295F"/>
</svg>
