<svg width="17" height="16" viewBox="0 0 17 16" fill="none" xmlns="http://www.w3.org/2000/svg">
<path d="M3.78328 2.03816C3.78306 2.47997 3.60726 2.9036 3.29454 3.21585C2.98182 3.52811 2.55781 3.70341 2.11578 3.70318C1.67376 3.70296 1.24992 3.52724 0.937517 3.21468C0.625113 2.90211 0.44973 2.4783 0.449951 2.03649C0.450172 1.59468 0.625979 1.17104 0.938696 0.858791C1.25141 0.546537 1.67542 0.371239 2.11745 0.37146C2.55948 0.371681 2.98331 0.547403 3.29572 0.859969C3.60812 1.17253 3.78351 1.59634 3.78328 2.03816ZM3.83328 4.93676H0.499951V15.3651H3.83328V4.93676ZM9.09995 4.93676H5.78328V15.3651H9.06662V9.8927C9.06662 6.84417 13.0416 6.56097 13.0416 9.8927V15.3651H16.3333V8.75991C16.3333 3.62072 10.4499 3.8123 9.06662 6.33608L9.09995 4.93676Z" fill="#15295F"/>
</svg>
