<svg width="40" height="40" viewBox="0 0 40 40" fill="none" xmlns="http://www.w3.org/2000/svg">
<g clip-path="url(#clip0_37_282)">
<path d="M29.2309 16.9232H10.7693V18.4616H29.2309V16.9232Z" fill="white"/>
<path d="M29.2309 21.5386H10.7693V23.077H29.2309V21.5386Z" fill="white"/>
<path d="M29.2309 26.154H10.7693V27.6924H29.2309V26.154Z" fill="white"/>
<path d="M20.0001 30.7694H10.7693V32.3079H20.0001V30.7694Z" fill="white"/>
<path d="M20.0231 5.76925C20.6604 5.76925 21.177 5.25266 21.177 4.6154C21.177 3.97815 20.6604 3.46155 20.0231 3.46155C19.3859 3.46155 18.8693 3.97815 18.8693 4.6154C18.8693 5.25266 19.3859 5.76925 20.0231 5.76925Z" fill="white"/>
<path d="M35.3846 9.23072C35.3846 7.53138 34.0071 6.15378 32.3078 6.15378H28.0362C27.4664 5.5208 26.7345 5.03647 25.8935 4.79454C25.1852 4.59089 24.64 4.04569 24.4362 3.33732C23.8819 1.41001 22.1056 0 19.9999 0C17.8944 0 16.1182 1.40991 15.564 3.33713C15.3599 4.04637 14.8134 4.59089 14.1042 4.79531C13.2641 5.03743 12.5329 5.52128 11.9636 6.15378H7.69229C5.99286 6.15378 4.61536 7.53138 4.61536 9.23072V36.9231C4.61536 38.6224 5.99286 40 7.69229 40C14.7564 40 23.4383 40 32.3078 40C34.0072 40 35.3847 38.6224 35.3847 36.9231C35.3847 28.1847 35.3846 19.817 35.3846 9.23072ZM12.3078 9.20591C12.3184 7.8534 13.2322 6.64763 14.5302 6.27359C15.7523 5.92147 16.6915 4.98262 17.0424 3.76242C17.4191 2.4529 18.6352 1.53847 19.9999 1.53847C21.3648 1.53847 22.5809 2.4529 22.9575 3.76252C23.3086 4.98349 24.2472 5.92205 25.4681 6.27311C26.7776 6.64974 27.6922 7.866 27.6922 9.23062V10.7691H12.3078V9.20591ZM32.3078 38.4615C24.0909 38.4615 15.8875 38.4615 7.69229 38.4615C6.84392 38.4615 6.15383 37.7713 6.15383 36.9231V9.23072C6.15383 8.38244 6.84392 7.69225 7.69229 7.69225H11.0329C10.8665 8.16264 10.7735 8.66754 10.7694 9.19389V12.3077H29.2309V9.23072C29.2309 8.69081 29.1355 8.17389 28.9651 7.69225H32.3078C33.1561 7.69225 33.8462 8.38244 33.8462 9.23072C33.8462 13.6291 33.8461 34.2553 33.8464 36.9231C33.8463 37.7713 33.1562 38.4615 32.3078 38.4615Z" fill="white"/>
</g>
<defs>
<clipPath id="clip0_37_282">
<rect width="40" height="40" fill="white"/>
</clipPath>
</defs>
</svg>
