<svg width="18" height="15" viewBox="0 0 18 15" fill="none" xmlns="http://www.w3.org/2000/svg">
<path d="M17.4684 2.54598C16.8322 2.82725 16.1575 3.01198 15.4667 3.09405C16.1948 2.65878 16.7398 1.97377 17 1.16664C16.3167 1.57311 15.5675 1.85798 14.7867 2.01207C14.2622 1.45115 13.567 1.07915 12.8092 0.9539C12.0513 0.828645 11.2733 0.957153 10.5961 1.31945C9.91887 1.68174 9.38037 2.25752 9.06431 2.95727C8.74825 3.65703 8.67233 4.44155 8.84838 5.18887C7.46263 5.11945 6.10699 4.75951 4.86945 4.13243C3.63191 3.50535 2.54015 2.62515 1.66504 1.54896C1.35529 2.08074 1.19251 2.68527 1.19338 3.30061C1.19338 4.50836 1.80838 5.57535 2.74338 6.20005C2.19005 6.18263 1.6489 6.03328 1.16504 5.76442V5.80773C1.16521 6.6121 1.44369 7.39165 1.95325 8.01422C2.46282 8.63679 3.17211 9.06406 3.96088 9.22359C3.44722 9.36272 2.90863 9.38322 2.38588 9.28356C2.60827 9.97592 3.04172 10.5814 3.62554 11.0153C4.20936 11.4492 4.91432 11.6897 5.64171 11.7032C4.91878 12.2707 4.09103 12.6902 3.20578 12.9378C2.32053 13.1853 1.39515 13.256 0.482544 13.1459C2.07563 14.1699 3.93012 14.7135 5.82421 14.7118C12.235 14.7118 15.7409 9.4035 15.7409 4.79989C15.7409 4.64996 15.7367 4.49837 15.73 4.35011C16.4124 3.85715 17.0014 3.24649 17.4692 2.54681L17.4684 2.54598Z" fill="#15295F"/>
</svg>
