<svg width="25" height="25" viewBox="0 0 25 25" fill="none" xmlns="http://www.w3.org/2000/svg">
<g clip-path="url(#clip0_51_1964)">
<path d="M23.0854 5.89171C22.2902 6.24348 21.4469 6.4745 20.5834 6.57713C21.4935 6.03279 22.1747 5.1761 22.5 4.16671C21.6459 4.67505 20.7094 5.0313 19.7334 5.224C19.0777 4.52252 18.2087 4.0573 17.2614 3.90065C16.3141 3.74401 15.3416 3.90472 14.4951 4.35781C13.6486 4.81089 12.9754 5.53097 12.5804 6.40608C12.1853 7.28119 12.0904 8.26232 12.3104 9.19692C10.5783 9.1101 8.8837 8.65997 7.33678 7.87574C5.78986 7.09151 4.42516 5.99072 3.33127 4.64484C2.94408 5.30989 2.7406 6.06591 2.74169 6.83546C2.74169 8.34588 3.51044 9.68025 4.67919 10.4615C3.98753 10.4397 3.3111 10.2529 2.70627 9.91671V9.97088C2.70648 10.9768 3.05458 11.9517 3.69153 12.7303C4.32849 13.5089 5.21511 14.0433 6.20107 14.2428C5.559 14.4168 4.88576 14.4424 4.23232 14.3178C4.5103 15.1836 5.05212 15.9409 5.78189 16.4835C6.51167 17.0261 7.39287 17.3269 8.30211 17.3438C7.39844 18.0535 6.36375 18.5782 5.25719 18.8877C4.15063 19.1973 2.99391 19.2857 1.85315 19.148C3.8445 20.4286 6.16263 21.1085 8.53023 21.1063C16.5438 21.1063 20.9261 14.4678 20.9261 8.71046C20.9261 8.52296 20.9209 8.33338 20.9125 8.14796C21.7655 7.53147 22.5017 6.76777 23.0865 5.89275L23.0854 5.89171Z" fill="black"/>
</g>
<defs>
<clipPath id="clip0_51_1964">
<rect width="25" height="25" fill="white"/>
</clipPath>
</defs>
</svg>
