<svg width="40" height="41" viewBox="0 0 40 41" fill="none" xmlns="http://www.w3.org/2000/svg">
<g clip-path="url(#clip0_46_87)">
<path d="M39.6531 29.1258L35.5531 27.0753L32.9438 20.286C32.913 20.2058 32.8661 20.1327 32.8059 20.0714C32.7457 20.0101 32.6735 19.9618 32.5938 19.9297L16.4031 13.4561C16.2899 13.4111 16.166 13.4001 16.0467 13.4245C15.9273 13.4489 15.8177 13.5077 15.7313 13.5937L13.5719 15.7536C13.4871 15.8401 13.4293 15.9494 13.4054 16.0681C13.3816 16.1869 13.3927 16.31 13.4375 16.4225L19.9094 32.6173C19.9415 32.697 19.9897 32.7693 20.051 32.8295C20.1123 32.8897 20.1854 32.9367 20.2656 32.9674L27.0531 35.5775L29.1031 39.6785C29.1463 39.7689 29.2106 39.8477 29.2905 39.908C29.3705 39.9684 29.4637 40.0087 29.5625 40.0255C29.5958 40.0286 29.6293 40.0286 29.6625 40.0255C29.828 40.0248 29.9865 39.9585 30.1031 39.8411L39.8156 30.1261C39.8871 30.0571 39.9411 29.972 39.9732 29.878C40.0053 29.7839 40.0145 29.6836 40 29.5853C39.9832 29.4865 39.943 29.3932 39.8826 29.3132C39.8222 29.2333 39.7435 29.169 39.6531 29.1258ZM14.7469 16.3413L15.0938 15.9974L23.1531 24.0589C22.622 24.8117 22.3926 25.7365 22.5103 26.6503C22.628 27.5642 23.0843 28.4006 23.7889 28.9942C24.4934 29.5877 25.395 29.8953 26.3153 29.8559C27.2357 29.8166 28.1077 29.4332 28.7591 28.7817C29.4105 28.1302 29.7937 27.2579 29.8331 26.3373C29.8724 25.4167 29.565 24.5149 28.9715 23.8101C28.3781 23.1054 27.5419 22.649 26.6283 22.5313C25.7147 22.4135 24.7901 22.643 24.0375 23.1743L15.9781 15.1128L16.3219 14.7659L31.875 20.9893L34.3281 27.3722L27.35 34.3521L20.9688 31.8984L14.7469 16.3413ZM26.1563 23.7494C26.718 23.7503 27.262 23.9459 27.6957 24.3029C28.1294 24.66 28.4259 25.1564 28.5348 25.7076C28.6436 26.2588 28.558 26.8307 28.2926 27.3259C28.0271 27.8211 27.5982 28.2089 27.079 28.4232C26.5598 28.6376 25.9823 28.6652 25.445 28.5015C24.9077 28.3377 24.4437 27.9927 24.1322 27.5252C23.8206 27.0576 23.6808 26.4965 23.7365 25.9374C23.7922 25.3783 24.0399 24.8558 24.4375 24.459C24.8938 24.004 25.512 23.7488 26.1563 23.7494ZM29.8344 38.3438L28.2719 35.218L35.1875 28.3006L38.3125 29.8635L29.8344 38.3438Z" fill="white"/>
<path d="M11.9531 33.4613C11.8336 33.3483 11.6754 33.2854 11.5109 33.2854C11.3465 33.2854 11.1882 33.3483 11.0687 33.4613L10.275 34.2553C8.15678 31.3797 6.98825 27.9147 6.93223 24.3433C6.87621 20.7719 7.9355 17.272 9.96247 14.3314C10.5697 14.6656 11.269 14.794 11.9553 14.6973C12.6417 14.6006 13.2783 14.284 13.7696 13.795C14.261 13.306 14.5807 12.6709 14.6808 11.9848C14.7809 11.2988 14.6561 10.5987 14.325 9.98964C17.2648 7.96215 20.7639 6.90259 24.3343 6.95862C27.9048 7.01465 31.3689 8.18348 34.2437 10.3022L33.4375 11.0868C33.3212 11.204 33.2561 11.3624 33.2562 11.5275C33.2557 11.6098 33.2715 11.6914 33.3026 11.7675C33.3337 11.8437 33.3795 11.913 33.4375 11.9714L36.1937 14.7065C36.3108 14.8229 36.4692 14.8883 36.6343 14.8883C36.7995 14.8883 36.9579 14.8229 37.075 14.7065L39.8156 11.9651C39.8737 11.9071 39.9198 11.8381 39.9512 11.7622C39.9827 11.6864 39.9989 11.605 39.9989 11.5228C39.9989 11.4407 39.9827 11.3593 39.9512 11.2834C39.9198 11.2076 39.8737 11.1386 39.8156 11.0805L37.075 8.33921C36.9579 8.22278 36.7995 8.15742 36.6343 8.15742C36.4692 8.15742 36.3108 8.22278 36.1937 8.33921L35.1343 9.39261C32.5234 7.4274 29.4366 6.19271 26.1909 5.81532C22.9452 5.43793 19.6576 5.93144 16.6656 7.24518L20.2687 3.65051C20.6773 3.84577 21.1417 3.88997 21.5798 3.77526C22.0178 3.66056 22.401 3.39436 22.6615 3.02391C22.922 2.65345 23.0429 2.20268 23.0027 1.75156C22.9625 1.30044 22.7638 0.878147 22.442 0.559589C22.1201 0.241031 21.6959 0.0468058 21.2445 0.0113698C20.7931 -0.0240661 20.3437 0.101578 19.9761 0.366013C19.6085 0.630448 19.3465 1.01658 19.2364 1.4559C19.1264 1.89522 19.1755 2.35933 19.375 2.7659L13.2937 8.8581C12.6763 8.44381 11.9342 8.2568 11.1942 8.32903C10.4542 8.40125 9.76223 8.72823 9.23649 9.2541C8.71075 9.77997 8.38386 10.4721 8.31166 11.2123C8.23945 11.9525 8.42641 12.6948 8.84059 13.3124L2.74997 19.3952C2.34191 19.1963 1.87658 19.1486 1.43666 19.2604C0.996735 19.3723 0.610713 19.6366 0.347187 20.0063C0.0836619 20.376 -0.0402998 20.8271 -0.00267003 21.2796C0.0349597 21.7321 0.231744 22.1566 0.552714 22.4776C0.873685 22.7987 1.29805 22.9955 1.75041 23.0331C2.20277 23.0708 2.65382 22.9468 3.02341 22.6832C3.39301 22.4196 3.6572 22.0335 3.76906 21.5934C3.88091 21.1534 3.83318 20.688 3.63434 20.2798L7.23747 16.6851C5.92276 19.6771 5.42782 22.9651 5.80346 26.2116C6.1791 29.4581 7.41179 32.5462 9.37497 35.1586L8.31872 36.2183C8.20231 36.3354 8.13697 36.4939 8.13697 36.659C8.13697 36.8242 8.20231 36.9826 8.31872 37.0997L11.0593 39.8411C11.176 39.9585 11.3345 40.0248 11.5 40.0255C11.5824 40.0256 11.6641 40.0093 11.7403 39.9777C11.8164 39.946 11.8856 39.8996 11.9437 39.8411L14.6875 37.0997C14.8039 36.9826 14.8692 36.8242 14.8692 36.659C14.8692 36.4939 14.8039 36.3354 14.6875 36.2183L11.9531 33.4613ZM36.6406 9.6583L38.4968 11.515L36.6406 13.3718L34.7843 11.515L36.6406 9.6583ZM20.625 1.46244C20.7178 1.36879 20.8364 1.30484 20.9657 1.27871C21.095 1.25258 21.2291 1.26545 21.351 1.31568C21.473 1.36591 21.5772 1.45125 21.6506 1.56085C21.724 1.67046 21.7632 1.7994 21.7632 1.93131C21.7632 2.06323 21.724 2.19217 21.6506 2.30177C21.5772 2.41138 21.473 2.49671 21.351 2.54694C21.2291 2.59718 21.095 2.61005 20.9657 2.58392C20.8364 2.55779 20.7178 2.49384 20.625 2.40018C20.5634 2.33864 20.5145 2.26555 20.4811 2.1851C20.4478 2.10464 20.4306 2.01841 20.4306 1.93131C20.4306 1.84422 20.4478 1.75798 20.4811 1.67753C20.5145 1.59708 20.5634 1.52399 20.625 1.46244ZM10.125 10.1428C10.3065 9.9604 10.5222 9.81566 10.7598 9.71689C10.9973 9.61813 11.2521 9.56728 11.5093 9.56728C11.7666 9.56728 12.0214 9.61813 12.2589 9.71689C12.4965 9.81566 12.7122 9.9604 12.8937 10.1428C13.1681 10.4168 13.355 10.766 13.4308 11.1462C13.5067 11.5265 13.4681 11.9207 13.3199 12.279C13.1717 12.6373 12.9205 12.9436 12.5982 13.1591C12.276 13.3746 11.897 13.4896 11.5093 13.4896C11.1217 13.4896 10.7427 13.3746 10.4204 13.1591C10.0982 12.9436 9.84702 12.6373 9.69881 12.279C9.55061 11.9207 9.51199 11.5265 9.58785 11.1462C9.6637 10.766 9.85063 10.4168 10.125 10.1428ZM2.38747 21.5833C2.25987 21.6897 2.09709 21.7445 1.93112 21.737C1.76515 21.7295 1.60798 21.6602 1.4905 21.5427C1.37302 21.4252 1.30372 21.268 1.29622 21.102C1.28872 20.936 1.34356 20.7731 1.44997 20.6455C1.57503 20.5226 1.74337 20.4537 1.91872 20.4537C2.09407 20.4537 2.2624 20.5226 2.38747 20.6455C2.44908 20.7071 2.49795 20.7801 2.53129 20.8606C2.56464 20.9411 2.5818 21.0273 2.5818 21.1144C2.5818 21.2015 2.56464 21.2877 2.53129 21.3682C2.49795 21.4486 2.44908 21.5217 2.38747 21.5833ZM11.5093 38.5032L9.65309 36.6465L11.5093 34.7898L13.3656 36.6465L11.5093 38.5032Z" fill="white"/>
</g>
<defs>
<clipPath id="clip0_46_87">
<rect width="40" height="40.0103" fill="white" transform="translate(0 0.0151978)"/>
</clipPath>
</defs>
</svg>
