<svg width="40" height="41" viewBox="0 0 40 41" fill="none" xmlns="http://www.w3.org/2000/svg">
<g clip-path="url(#clip0_46_114)">
<path d="M15.782 25.6947C15.6309 25.6947 15.4787 25.6427 15.3545 25.5369L11.0812 21.8973C10.9338 21.7716 10.8491 21.588 10.8491 21.3941C10.8491 21.2006 10.9342 21.0171 11.0812 20.8914L15.3545 17.2517C15.632 17.0151 16.0488 17.0486 16.2854 17.3262C16.5216 17.6041 16.4884 18.021 16.2106 18.2573L12.528 21.3941L16.2106 24.531C16.4884 24.7677 16.5216 25.1846 16.2854 25.4621C16.1546 25.6158 15.9688 25.6947 15.782 25.6947Z" fill="white"/>
<path d="M24.218 25.6947C24.0312 25.6947 23.8454 25.6158 23.715 25.4621C23.4784 25.1846 23.5119 24.7677 23.7894 24.531L27.472 21.3941L23.7894 18.2573C23.5119 18.021 23.4784 17.6041 23.715 17.3262C23.9512 17.0486 24.3684 17.0151 24.6455 17.2517L28.9188 20.8914C29.0662 21.0171 29.1509 21.2006 29.1509 21.3941C29.1509 21.588 29.0662 21.7716 28.9188 21.8973L24.6455 25.5369C24.5213 25.6427 24.3691 25.6947 24.218 25.6947Z" fill="white"/>
<path d="M18.4872 28.4246C18.4419 28.4246 18.3962 28.4198 18.3501 28.4102C17.9934 28.3351 17.7649 27.9845 17.8401 27.6277L20.5034 14.9796C20.5785 14.6228 20.9286 14.3943 21.2857 14.4695C21.6424 14.5446 21.8709 14.8948 21.7957 15.252L19.1325 27.9001C19.0669 28.2112 18.7927 28.4246 18.4872 28.4246Z" fill="white"/>
<path d="M35.566 35.3154H4.43396C1.98924 35.3154 0 33.326 0 30.8803L0 4.4503C0 2.00495 1.98924 0.0151978 4.43396 0.0151978L35.566 0.0151978C38.0108 0.0151978 40 2.00495 40 4.4503V30.8803C40 33.326 38.0108 35.3154 35.566 35.3154ZM4.43396 1.33629C2.71742 1.33629 1.32075 2.73332 1.32075 4.4503L1.32075 30.8803C1.32075 32.5973 2.71742 33.9943 4.43396 33.9943H35.566C37.2826 33.9943 38.6792 32.5973 38.6792 30.8803V4.4503C38.6792 2.73332 37.2826 1.33629 35.566 1.33629L4.43396 1.33629Z" fill="white"/>
<path d="M39.3396 10.5925L0.660377 10.5925C0.295548 10.5925 0 10.2968 0 9.93191C0 9.56735 0.295548 9.27136 0.660377 9.27136L39.3396 9.27136C39.7044 9.27136 40 9.56735 40 9.93191C40 10.2968 39.7044 10.5925 39.3396 10.5925Z" fill="white"/>
<path d="M11.2831 7.43162C10.1312 7.43162 9.1933 6.49351 9.1933 5.34124C9.1933 4.1886 10.1312 3.25085 11.2831 3.25085C12.4355 3.25085 13.373 4.1886 13.373 5.34124C13.373 6.49351 12.4355 7.43162 11.2831 7.43162ZM11.2831 4.57195C10.8594 4.57195 10.5141 4.91697 10.5141 5.34124C10.5141 5.76551 10.8594 6.11053 11.2831 6.11053C11.7073 6.11053 12.0522 5.76551 12.0522 5.34124C12.0522 4.91697 11.7073 4.57195 11.2831 4.57195Z" fill="white"/>
<path d="M4.86218 7.41135C3.70984 7.41135 2.77234 6.47361 2.77234 5.32097C2.77234 4.16833 3.70984 3.23059 4.86218 3.23059C6.01453 3.23059 6.95203 4.16833 6.95203 5.32097C6.95203 6.47361 6.01453 7.41135 4.86218 7.41135ZM4.86218 4.55169C4.43839 4.55169 4.09309 4.89707 4.09309 5.32097C4.09309 5.74524 4.43839 6.09026 4.86218 6.09026C5.28634 6.09026 5.63127 5.74524 5.63127 5.32097C5.63127 4.89707 5.28634 4.55169 4.86218 4.55169Z" fill="white"/>
<path d="M17.7042 7.45151C16.5522 7.45151 15.6147 6.51377 15.6147 5.36113C15.6147 4.20886 16.5522 3.27112 17.7042 3.27112C18.8565 3.27112 19.794 4.20886 19.794 5.36113C19.794 6.51377 18.8565 7.45151 17.7042 7.45151ZM17.7042 4.59184C17.2804 4.59184 16.9354 4.93686 16.9354 5.36113C16.9354 5.7854 17.2804 6.13042 17.7042 6.13042C18.1283 6.13042 18.4732 5.7854 18.4732 5.36113C18.4732 4.93686 18.1283 4.59184 17.7042 4.59184Z" fill="white"/>
</g>
<defs>
<clipPath id="clip0_46_114">
<rect width="40" height="40.0103" fill="white" transform="translate(0 0.0151978)"/>
</clipPath>
</defs>
</svg>
